<svg
  width="24"
  height="24"
  viewBox="0 0 24 24"
  fill="none"
  xmlns="http://www.w3.org/2000/svg"
>
  <path
    fill-rule="evenodd"
    clip-rule="evenodd"
    d="M7 2.25C6.30964 2.25 5.75 2.80964 5.75 3.5V12.5C5.75 13.1904 6.30964 13.75 7 13.75H17C17.6904 13.75 18.25 13.1904 18.25 12.5V3.5C18.25 2.80964 17.6904 2.25 17 2.25H7ZM7.25 12.25V3.75H16.75V12.25H7.25Z"
    fill="currentColor"
  />
  <path
    fill-rule="evenodd"
    clip-rule="evenodd"
    d="M4.5 14.25C4.08579 14.25 3.75 14.5858 3.75 15V16.5C3.75 17.1904 4.30964 17.75 5 17.75H19C19.6904 17.75 20.25 17.1904 20.25 16.5V15C20.25 14.5858 19.9142 14.25 19.5 14.25H4.5ZM5.25 16.25V15.75H18.75V16.25H5.25Z"
    fill="currentColor"
  />
  <path
    d="M10.25 18.5C9.97386 18.5 9.75 18.7239 9.75 19V20.25C9.75 20.6642 10.0858 21 10.5 21H13.5C13.9142 21 14.25 20.6642 14.25 20.25V19C14.25 18.7239 14.0261 18.5 13.75 18.5H10.25Z"
    fill="currentColor"
  />
</svg>
